<?xml version="1.0" encoding="utf-8"?>
<!-- Generator: Adobe Illustrator 28.0.0, SVG Export Plug-In . SVG Version: 6.00 Build 0)  -->
<svg version="1.1" id="Layer_1" xmlns="http://www.w3.org/2000/svg" xmlns:xlink="http://www.w3.org/1999/xlink" x="0px" y="0px"
	 viewBox="0 0 512 512" style="enable-background:new 0 0 512 512;" xml:space="preserve">
<style type="text/css">
	.st0{fill:#FF9147;}
</style>
<path class="st0" d="M406.5,399.6c-19.1-46.7-65-79.6-118.5-79.6h-64c-53.5,0-99.4,32.9-118.5,79.6C69.9,362.2,48,311.7,48,256
	c0-114.9,93.1-208,208-208s208,93.1,208,208C464,311.7,442.1,362.2,406.5,399.6z M366.4,432.3c-32,20.1-69.8,31.7-110.4,31.7
	s-78.4-11.6-110.5-31.7c7.3-36.7,39.7-64.3,78.5-64.3h64c38.8,0,71.2,27.6,78.5,64.3L366.4,432.3z M256,512
	c141.4,0,256-114.6,256-256S397.4,0,256,0S0,114.6,0,256S114.6,512,256,512z M256,240c-22.1,0-40-17.9-40-40s17.9-40,40-40
	s40,17.9,40,40S278.1,240,256,240z M168,200c0,48.6,39.4,88,88,88s88-39.4,88-88s-39.4-88-88-88S168,151.4,168,200L168,200z"/>
</svg>
